<?xml version="1.0" standalone="no"?>
<!DOCTYPE svg PUBLIC "-//W3C//DTD SVG 20010904//EN"
 "http://www.w3.org/TR/2001/REC-SVG-20010904/DTD/svg10.dtd">
<svg version="1.0" xmlns="http://www.w3.org/2000/svg"
 width="700.000000pt" height="700.000000pt" viewBox="0 0 700.000000 700.000000"
 preserveAspectRatio="xMidYMid meet">
<metadata>
Created by potrace 1.11, written by Peter Selinger 2001-2013
</metadata>
<g transform="translate(0.000000,700.000000) scale(0.100000,-0.100000)"
fill="#000000" stroke="none">
<path d="M1165 6778 c-363 -25 -668 -237 -862 -598 -46 -84 -120 -261 -151
-360 -54 -170 -105 -414 -127 -610 -13 -121 -16 -167 -21 -312 l-5 -158 78
-115 c43 -64 89 -134 103 -155 14 -22 94 -142 179 -267 85 -126 154 -232 154
-238 0 -10 -61 -178 -198 -550 -37 -99 -75 -202 -84 -230 -10 -27 -34 -93 -54
-145 -19 -52 -67 -182 -106 -289 l-71 -194 76 -306 c42 -168 77 -313 80 -321
5 -24 35 -144 39 -160 2 -8 22 -87 45 -175 22 -88 49 -196 60 -240 10 -44 26
-109 35 -145 34 -133 66 -261 70 -280 2 -8 26 -105 54 -215 28 -110 53 -209
56 -220 8 -40 13 -61 30 -125 9 -36 18 -72 20 -80 2 -8 6 -27 10 -42 l7 -28
407 0 c223 0 1535 0 2915 0 1379 -1 2510 0 2511 2 4 3 138 532 150 590 2 9 38
153 80 320 42 167 78 312 81 323 2 11 20 83 40 160 20 77 37 147 39 155 2 8
13 53 24 100 12 47 23 92 25 100 2 8 9 35 16 60 7 25 14 54 16 65 2 11 11 47
19 80 9 33 18 71 21 85 3 14 7 30 8 35 1 6 8 28 14 50 6 22 14 54 18 70 4 17
8 32 9 35 0 3 7 28 13 55 l13 51 -171 464 c-94 256 -179 488 -190 515 -54 141
-150 409 -150 421 0 7 115 187 256 399 l256 385 -6 153 c-8 210 -26 401 -52
531 -2 11 -7 37 -10 56 -3 19 -19 87 -34 150 -81 333 -197 586 -359 780 -48
58 -64 74 -146 144 -140 122 -341 206 -525 222 -96 8 -4588 10 -4705 2z"/>
</g>
</svg>
