<?xml version="1.0" standalone="no"?>
<!DOCTYPE svg PUBLIC "-//W3C//DTD SVG 20010904//EN"
 "http://www.w3.org/TR/2001/REC-SVG-20010904/DTD/svg10.dtd">
<svg version="1.0" xmlns="http://www.w3.org/2000/svg"
 width="700.000000pt" height="700.000000pt" viewBox="0 0 700.000000 700.000000"
 preserveAspectRatio="xMidYMid meet">
<metadata>
Created by potrace 1.11, written by Peter Selinger 2001-2013
</metadata>
<g transform="translate(0.000000,700.000000) scale(0.100000,-0.100000)"
fill="#000000" stroke="none">
<path d="M2675 6779 c-250 -24 -525 -147 -810 -362 -111 -84 -383 -359 -487
-492 -323 -416 -538 -860 -642 -1329 -33 -149 -61 -324 -53 -333 3 -2 32 12
65 32 33 19 65 35 71 35 6 0 590 -339 1298 -753 709 -415 1298 -759 1309 -765
21 -11 22 -8 38 76 102 527 337 1022 700 1476 96 120 300 327 410 416 95 77
275 200 292 200 7 0 14 4 16 9 10 26 259 132 391 165 l89 22 -934 542 -933
543 -42 88 c-97 200 -266 351 -453 404 -56 16 -198 38 -228 36 -9 -1 -53 -5
-97 -10z"/>
<path d="M5735 4964 c-57 -9 -210 -53 -274 -80 -159 -64 -312 -154 -476 -277
-105 -79 -382 -356 -477 -477 -404 -512 -661 -1121 -708 -1680 -8 -94 -10
-486 -8 -1292 l3 -1158 1260 728 c693 400 1344 776 1448 836 l187 108 0 1209
c0 1016 -2 1225 -15 1307 -60 394 -254 655 -560 755 -45 14 -95 20 -205 22
-80 2 -158 1 -175 -1z m524 -922 l172 -100 -68 -40 c-37 -22 -230 -133 -428
-247 -198 -114 -416 -240 -485 -280 -136 -79 -1028 -594 -1230 -710 -187 -108
-168 -102 -163 -47 7 72 50 278 74 357 l21 71 536 309 c295 171 725 419 957
553 231 133 425 240 431 238 6 -2 88 -49 183 -104z m129 -2194 l52 -30 -332
-192 c-183 -106 -702 -405 -1153 -666 -451 -260 -839 -484 -862 -497 l-43 -25
0 209 0 209 133 76 c72 42 529 306 1015 586 l883 510 127 -75 c70 -41 151 -89
180 -105z"/>
<path d="M370 4116 c0 -3 9 -10 20 -16 11 -6 20 -8 20 -6 0 3 -9 10 -20 16
-11 6 -20 8 -20 6z"/>
<path d="M1633 3589 l-83 -50 0 -240 c0 -131 -2 -239 -5 -239 -2 0 -114 64
-247 142 -441 256 -621 359 -624 355 -2 -2 -3 -315 -2 -694 l3 -691 67 40 67
40 1305 -764 1305 -763 4 -80 c1 -44 3 235 2 620 l0 700 -552 320 -552 320 -3
349 -3 348 -285 165 c-157 91 -292 167 -300 168 -8 2 -52 -19 -97 -46z"/>
</g>
</svg>
